<?xml version="1.0" encoding="UTF-8" standalone="no"?>
<!DOCTYPE svg PUBLIC "-//W3C//DTD SVG 1.1//EN" "http://www.w3.org/Graphics/SVG/1.1/DTD/svg11.dtd">
<svg xmlns="http://www.w3.org/2000/svg" xmlns:xlink="http://www.w3.org/1999/xlink" version="1.1" width="2400pt" height="2400pt" viewBox="0 0 2400 2400">
<g enable-background="new">
<g>
<g id="Layer-1" data-name="Layer">
<clipPath id="cp0">
<path transform="matrix(2.7777777,0,0,-2.7777777,0,2400)" d="M 0 864 L 864 864 L 864 0 L 0 0 Z "/>
</clipPath>
<g clip-path="url(#cp0)">
<path transform="matrix(2.7777777,0,0,-2.7777777,1736.5939,1144.0916)" d="M 0 0 C -8.25 20.224 -19.611 37.566 -34.054 52.009 C -48.497 66.452 -65.839 77.804 -86.063 86.063 C -106.287 94.323 -128.166 98.448 -151.692 98.448 C -158.297 98.448 -164.69 98.137 -170.883 97.515 C -177.075 96.893 -183.89 96.17 -191.316 95.347 L -183.268 146.735 L -21.659 146.735 L -21.659 249.519 L -265.992 249.519 L -275.084 192.588 L -275.093 192.606 L -305.873 -.009 C -327.908 -104.083 -230.441 -167.518 -149.674 -122.24 C -149.283 -127.957 -153.576 -231.254 -150.37 -230.815 C -133.385 -228.491 -117.104 -223.372 -102.774 -218.877 C -78.426 -211.239 -57.781 -200.299 -40.859 -186.058 C -23.937 -171.815 -10.83 -154.583 -1.546 -134.359 C 7.738 -114.136 12.386 -91.433 12.386 -66.251 C 12.386 -42.313 8.26 -20.224 0 0 " fill="#551123" fill-rule="evenodd"/>
<path transform="matrix(2.7777777,0,0,-2.7777777,616.9325,812.3913)" d="M 0 0 L -58.367 -17.097 C -58.698 -17.194 -59.017 -16.914 -58.963 -16.573 L -42.912 83.882 C -42.882 84.068 -42.745 84.218 -42.562 84.264 L 143.145 130.893 C 143.472 130.975 143.776 130.696 143.723 130.363 L 103.863 -119.102 C 82.684 -219.108 172.977 -277.497 251.754 -241.734 C 254.881 -240.314 251.754 -243.04 251.754 -349.136 C 243.11 -349.851 236.228 -349.755 225.069 -349.412 C 196.727 -348.541 169.721 -345.973 144.082 -339.095 C 118.542 -332.243 94.546 -321.77 72.111 -307.675 C 71.952 -307.575 71.867 -307.391 71.895 -307.205 C 71.923 -307.023 71.841 -306.843 71.687 -306.743 C 16.207 -270.829 -20.27 -210.073 -20.27 -141.164 C -20.27 -133.563 -19.821 -126.054 -18.961 -118.672 L 0 .009 Z " fill="#115742" fill-rule="evenodd"/>
<path transform="matrix(2.7777777,0,0,-2.7777777,616.9325,812.3913)" stroke-width="2.844" stroke-linecap="butt" stroke-miterlimit="10" stroke-linejoin="miter" fill="none" stroke="#ffffff" d="M 0 0 L -58.367 -17.097 C -58.698 -17.194 -59.017 -16.914 -58.963 -16.573 L -42.912 83.882 C -42.882 84.068 -42.745 84.218 -42.562 84.264 L 143.145 130.893 C 143.472 130.975 143.776 130.696 143.723 130.363 L 103.863 -119.102 C 82.684 -219.108 172.977 -277.497 251.754 -241.734 C 254.881 -240.314 251.754 -243.04 251.754 -349.136 C 243.11 -349.851 236.228 -349.755 225.069 -349.412 C 196.727 -348.541 169.721 -345.973 144.082 -339.095 C 118.542 -332.243 94.546 -321.77 72.111 -307.675 C 71.952 -307.575 71.867 -307.391 71.895 -307.205 C 71.923 -307.023 71.841 -306.843 71.687 -306.743 C 16.207 -270.829 -20.27 -210.073 -20.27 -141.164 C -20.27 -133.563 -19.821 -126.054 -18.961 -118.672 L 0 .009 L 0 0 Z "/>
<path transform="matrix(2.7777777,0,0,-2.7777777,1894.865,1178.5414)" d="M 0 0 L 48.286 0 C 47.596 5.015 46.452 9.699 44.942 13.9 L 3.344 13.9 C 1.835 9.699 .691 5.015 0 0 " fill="#115742"/>
<path transform="matrix(2.7777777,0,0,-2.7777777,2015.0363,1128.4003)" d="M 0 0 C -4.568 10.041 -11.437 16.43 -19.117 16.43 C -26.799 16.43 -33.667 10.041 -38.235 0 L 0 0 " fill="#115742"/>
<path transform="matrix(2.7777777,0,0,-2.7777777,2029.0364,1240.7958)" d="M 0 0 L -48.317 0 C -47.621 -5.104 -46.458 -9.868 -44.916 -14.131 L -3.4 -14.131 C -1.858 -9.868 -.695 -5.104 0 0 " fill="#115742"/>
<path transform="matrix(2.7777777,0,0,-2.7777777,1908.9707,1291.5772)" d="M 0 0 C 4.568 -9.976 11.414 -16.317 19.066 -16.317 C 26.718 -16.317 33.563 -9.976 38.131 0 L 0 0 " fill="#115742"/>
<path transform="matrix(2.7777777,0,0,-2.7777777,1893.5736,1190.1775)" d="M 0 0 C -.195 -2.306 -.297 -4.669 -.297 -7.075 C -.297 -9.454 -.197 -11.791 -.007 -14.072 L 49.224 -14.072 C 49.414 -11.791 49.514 -9.454 49.514 -7.075 C 49.514 -4.669 49.411 -2.306 49.217 0 L 0 0 " fill="#115742"/>
<path transform="matrix(2.7777777,0,0,-2.7777777,1970.1388,1233.3224)" d="M 0 0 C 0 0 .728 14.479 12.288 30.447 C 8.082 32.601 1.919 22.306 .421 19.721 C .28 19.517 0 19.626 0 19.626 L 0 41.435 C 0 41.435 .054 45.818 -2.617 48.49 C -4.717 50.589 -8.154 49.456 -9.815 48.416 C -11.803 47.17 -15.232 42.553 -16.791 39.659 C -18.35 36.764 -20.807 29.427 -17.123 26.746 C -16.097 29.911 -9.757 46.393 -5.883 44.422 C -5.022 43.984 -4.723 41.435 -4.723 41.435 L -4.723 -10.442 C -4.723 -10.442 -5.952 -6.595 -8.912 -2.69 C -12.215 1.666 -18.961 9.489 -22.73 7.724 C -23.442 7.39 -15.74 .702 -11.426 -7.243 C -6.451 -16.4 -4.723 -27.047 -4.723 -27.047 L -4.723 -37.677 L 0 -37.677 L 0 0 " fill="#ffffff"/>
<path transform="matrix(2.7777777,0,0,-2.7777777,388.44804,1197.2155)" d="M 0 0 L 48.286 0 C 47.595 5.015 46.452 9.699 44.942 13.899 L 3.344 13.899 C 1.834 9.699 .692 5.015 0 0 " fill="#115742"/>
<path transform="matrix(2.7777777,0,0,-2.7777777,508.61943,1147.0758)" d="M 0 0 C -4.569 10.041 -11.437 16.431 -19.118 16.431 C -26.799 16.431 -33.667 10.041 -38.236 0 L 0 0 " fill="#115742"/>
<path transform="matrix(2.7777777,0,0,-2.7777777,522.6197,1259.4727)" d="M 0 0 L -48.317 0 C -47.622 -5.104 -46.458 -9.868 -44.917 -14.13 L -3.4 -14.13 C -1.858 -9.868 -.696 -5.104 0 0 " fill="#115742"/>
<path transform="matrix(2.7777777,0,0,-2.7777777,402.5525,1310.2539)" d="M 0 0 C 4.569 -9.975 11.414 -16.316 19.066 -16.316 C 26.718 -16.316 33.563 -9.975 38.131 0 L 0 0 " fill="#115742"/>
<path transform="matrix(2.7777777,0,0,-2.7777777,387.15693,1208.8513)" d="M 0 0 C -.195 -2.307 -.297 -4.669 -.297 -7.075 C -.297 -9.455 -.198 -11.791 -.007 -14.072 L 49.224 -14.072 C 49.414 -11.791 49.513 -9.455 49.513 -7.075 C 49.513 -4.669 49.411 -2.307 49.216 0 L 0 0 " fill="#115742"/>
<path transform="matrix(2.7777777,0,0,-2.7777777,463.72084,1251.9967)" d="M 0 0 C 0 0 .728 14.479 12.289 30.447 C 8.083 32.6 1.919 22.306 .421 19.721 C .28 19.516 0 19.626 0 19.626 L 0 41.435 C 0 41.435 .054 45.818 -2.617 48.489 C -4.716 50.589 -8.154 49.456 -9.815 48.415 C -11.803 47.17 -15.232 42.553 -16.791 39.658 C -18.35 36.764 -20.806 29.427 -17.123 26.746 C -16.097 29.91 -9.757 46.393 -5.882 44.421 C -5.021 43.984 -4.722 41.435 -4.722 41.435 L -4.722 -10.442 C -4.722 -10.442 -5.952 -6.595 -8.912 -2.691 C -12.215 1.666 -18.96 9.489 -22.73 7.724 C -23.442 7.39 -15.74 .701 -11.425 -7.243 C -6.451 -16.4 -4.722 -27.047 -4.722 -27.047 L -4.722 -37.677 L 0 -37.677 L 0 0 " fill="#ffffff"/>
<path transform="matrix(2.7777777,0,0,-2.7777777,522.153,1477.6583)" d="M 0 0 C -1.183 2.925 -3.629 4.558 -7.336 4.898 C -11.044 5.239 -15.716 4.269 -21.353 1.988 C -26.989 -.292 -31.016 -2.841 -33.432 -5.659 C -35.848 -8.477 -36.464 -11.349 -35.281 -14.273 C -34.098 -17.199 -31.658 -18.834 -27.962 -19.18 C -24.267 -19.524 -19.6 -18.557 -13.963 -16.276 C -8.327 -13.996 -4.297 -11.438 -1.874 -8.604 C .549 -5.77 1.174 -2.901 0 0 M 8.562 3.464 C 11.294 -3.291 11.118 -9.492 8.035 -15.14 C 4.95 -20.788 -.718 -25.281 -8.97 -28.62 C -17.247 -31.968 -24.445 -32.68 -30.564 -30.755 C -36.684 -28.831 -41.11 -24.491 -43.843 -17.737 C -46.594 -10.936 -46.442 -4.729 -43.383 .88 C -40.326 6.49 -34.646 10.974 -26.346 14.331 C -18.094 17.67 -10.896 18.382 -4.752 16.467 C 1.391 14.552 5.829 10.218 8.562 3.464 " fill="#115742"/>
<path transform="matrix(2.7777777,0,0,-2.7777777,575.8747,1540.275)" d="M 0 0 L 15.508 -25.43 L 7.721 -30.179 L -1.255 -15.459 L -12.853 -22.532 L -4.198 -36.726 L -12.05 -41.514 L -20.705 -27.32 L -40.156 -39.182 L -46.687 -28.471 Z " fill="#115742"/>
<path transform="matrix(2.7777777,0,0,-2.7777777,665.90969,1706.7328)" d="M 0 0 L -10.079 -9.783 L -8.229 -11.688 C -6.05 -13.935 -4.1 -15.17 -2.379 -15.396 C -.659 -15.62 1.066 -14.894 2.797 -13.214 C 4.693 -11.374 5.594 -9.631 5.501 -7.988 C 5.407 -6.345 4.235 -4.363 1.983 -2.044 Z M -2.032 15.188 L 6.974 5.91 C 7.438 5.432 7.92 4.952 8.421 4.474 C 8.922 3.994 9.19 3.736 9.227 3.699 C 14.068 -1.289 16.751 -5.738 17.273 -9.646 C 17.795 -13.555 16.216 -17.296 12.534 -20.87 C 10.123 -23.211 7.526 -24.515 4.747 -24.781 C 1.967 -25.049 -.879 -24.271 -3.791 -22.45 C -2.942 -23.914 -2.587 -25.385 -2.727 -26.861 C -2.867 -28.338 -3.711 -30.524 -5.26 -33.423 L -14.361 -50.622 L -23.367 -41.344 L -15.268 -27.423 C -13.779 -24.904 -13.042 -23.001 -13.06 -21.713 C -13.077 -20.425 -13.72 -19.127 -14.988 -17.82 L -16.623 -16.136 L -32.694 -31.734 L -41.271 -22.898 Z " fill="#115742"/>
<path transform="matrix(2.7777777,0,0,-2.7777777,744.1377,1746.3324)" d="M 0 0 L 9.769 -7.871 L -24.539 -50.453 L -34.308 -42.582 Z " fill="#115742"/>
<path transform="matrix(2.7777777,0,0,-2.7777777,871.7408,1839.9008)" d="M 0 0 L -5.937 -8.361 C -6.81 -6.608 -7.82 -5.102 -8.969 -3.842 C -10.118 -2.581 -11.531 -1.429 -13.208 -.384 C -17.083 2.031 -20.913 2.543 -24.696 1.153 C -28.48 -.237 -31.912 -3.404 -34.992 -8.347 C -38.14 -13.397 -39.486 -17.97 -39.029 -22.063 C -38.572 -26.157 -36.341 -29.452 -32.334 -31.948 C -30.876 -32.857 -29.292 -33.543 -27.583 -34.003 C -25.875 -34.463 -23.985 -34.703 -21.913 -34.726 L -27.032 -43.959 C -29.094 -43.581 -31.13 -42.992 -33.141 -42.192 C -35.152 -41.393 -37.148 -40.375 -39.129 -39.141 C -45.879 -34.935 -49.896 -29.424 -51.18 -22.607 C -52.464 -15.792 -50.813 -8.704 -46.227 -1.345 C -41.708 5.905 -36.117 10.477 -29.451 12.368 C -22.785 14.26 -16.165 13.157 -9.589 9.06 C -7.76 7.92 -6.053 6.599 -4.465 5.096 C -2.878 3.592 -1.39 1.894 0 0 " fill="#115742"/>
<path transform="matrix(2.7777777,0,0,-2.7777777,886.21688,1841.219)" d="M 0 0 L 28.628 -12.231 L 25.045 -20.619 L 7.953 -13.316 L 2.813 -25.348 L 18.984 -32.258 L 15.386 -40.68 L -.786 -33.771 L -6.32 -46.722 L 11.586 -54.372 L 7.958 -62.865 L -21.485 -50.286 Z " fill="#115742"/>
<path transform="matrix(2.7777777,0,0,-2.7777777,1064.103,1926.7605)" d="M 0 0 L -2.412 -13.838 L .205 -14.293 C 3.288 -14.831 5.591 -14.686 7.116 -13.857 C 8.641 -13.029 9.61 -11.428 10.024 -9.052 C 10.478 -6.449 10.184 -4.509 9.144 -3.234 C 8.103 -1.959 5.99 -1.044 2.806 -.489 Z M -10.565 11.099 L 2.172 8.879 C 2.83 8.765 3.501 8.66 4.188 8.567 C 4.875 8.473 5.244 8.422 5.294 8.413 C 12.143 7.22 16.927 5.194 19.646 2.338 C 22.364 -.519 23.283 -4.475 22.402 -9.529 C 21.825 -12.84 20.49 -15.42 18.397 -17.269 C 16.303 -19.117 13.543 -20.16 10.118 -20.396 C 11.664 -21.082 12.815 -22.064 13.569 -23.341 C 14.323 -24.619 14.924 -26.885 15.373 -30.14 L 18.109 -49.405 L 5.371 -47.186 L 3.749 -31.161 C 3.476 -28.249 2.953 -26.276 2.183 -25.243 C 1.412 -24.211 .129 -23.538 -1.665 -23.226 L -3.977 -22.822 L -7.822 -44.887 L -19.954 -42.772 Z " fill="#115742"/>
<path transform="matrix(2.7777777,0,0,-2.7777777,1148.501,1913.6718)" d="M 0 0 L 31.126 -.601 L 30.951 -9.719 L 12.367 -9.36 L 12.115 -22.442 L 29.698 -22.781 L 29.521 -31.938 L 11.938 -31.6 L 11.666 -45.681 L 31.134 -46.057 L 30.957 -55.291 L -1.055 -54.673 Z " fill="#115742"/>
<path transform="matrix(2.7777777,0,0,-2.7777777,1239.0436,1916.634)" d="M 0 0 L 13.115 1.798 L 28.363 -37.479 L 33.437 4.582 L 45.522 6.238 L 36.781 -50.154 L 23.36 -51.993 Z " fill="#115742"/>
<path transform="matrix(2.7777777,0,0,-2.7777777,1432.1641,1901.7008)" d="M 0 0 C -3.001 -.976 -4.801 -3.301 -5.399 -6.976 C -5.999 -10.65 -5.357 -15.379 -3.478 -21.161 C -1.597 -26.943 .664 -31.139 3.307 -33.745 C 5.948 -36.354 8.77 -37.169 11.771 -36.192 C 14.771 -35.217 16.573 -32.898 17.176 -29.235 C 17.779 -25.573 17.141 -20.85 15.26 -15.067 C 13.379 -9.286 11.109 -5.087 8.452 -2.471 C 5.794 .145 2.977 .969 0 0 M -2.856 8.783 C 4.072 11.036 10.246 10.428 15.665 6.956 C 21.083 3.484 25.169 -2.484 27.922 -10.95 C 30.683 -19.44 30.89 -26.671 28.542 -32.641 C 26.194 -38.611 21.556 -42.723 14.627 -44.976 C 7.648 -47.245 1.469 -46.658 -3.913 -43.215 C -9.295 -39.772 -13.37 -33.794 -16.14 -25.279 C -18.893 -16.813 -19.099 -9.583 -16.759 -3.589 C -14.419 2.406 -9.785 6.53 -2.856 8.783 " fill="#115742"/>
<path transform="matrix(2.7777777,0,0,-2.7777777,1498.47,1852.3274)" d="M 0 0 L 11.154 5.742 L 31.637 -34.052 L 47.547 -25.862 L 52.091 -34.689 L 25.025 -48.62 Z " fill="#115742"/>
<path transform="matrix(2.7777777,0,0,-2.7777777,1576.8339,1812.1471)" d="M 0 0 L 10.232 7.39 L 30.713 -20.969 C 33.221 -24.442 35.403 -26.521 37.259 -27.206 C 39.114 -27.892 41.123 -27.453 43.286 -25.891 C 45.491 -24.299 46.562 -22.505 46.497 -20.511 C 46.434 -18.516 45.154 -15.792 42.661 -12.34 L 22.181 16.019 L 31.883 23.025 L 51.53 -4.178 C 55.916 -10.251 57.854 -15.687 57.348 -20.483 C 56.841 -25.28 53.872 -29.639 48.444 -33.559 C 43.036 -37.464 37.985 -38.904 33.29 -37.881 C 28.595 -36.857 24.048 -33.299 19.646 -27.204 Z " fill="#115742"/>
<path transform="matrix(2.7777777,0,0,-2.7777777,1672.1163,1742.0573)" d="M 0 0 L 25.761 25.723 L 32.667 18.806 L 24.252 10.403 L 55.984 -21.375 L 47.052 -30.294 L 15.32 1.485 L 6.906 -6.917 Z " fill="#115742"/>
<path transform="matrix(2.7777777,0,0,-2.7777777,1750.7349,1659.9363)" d="M 0 0 L 7.83 9.802 L 50.556 -24.326 L 42.727 -34.129 Z " fill="#115742"/>
<path transform="matrix(2.7777777,0,0,-2.7777777,1836.7133,1578.209)" d="M 0 0 C -1.616 -2.71 -1.44 -5.646 .527 -8.806 C 2.495 -11.967 6.09 -15.104 11.312 -18.22 C 16.533 -21.335 20.997 -23.005 24.702 -23.228 C 28.407 -23.452 31.068 -22.209 32.685 -19.499 C 34.302 -16.789 34.132 -13.857 32.175 -10.702 C 30.218 -7.549 26.628 -4.414 21.406 -1.299 C 16.185 1.816 11.712 3.483 7.989 3.703 C 4.267 3.922 1.604 2.688 0 0 M -7.932 4.731 C -4.198 10.989 .851 14.594 7.214 15.547 C 13.578 16.5 20.583 14.696 28.228 10.136 C 35.896 5.562 40.811 .255 42.973 -5.785 C 45.135 -11.825 44.35 -17.974 40.616 -24.23 C 36.857 -30.531 31.819 -34.158 25.501 -35.108 C 19.183 -36.06 12.18 -34.241 4.49 -29.654 C -3.154 -25.094 -8.069 -19.786 -10.254 -13.733 C -12.438 -7.681 -11.664 -1.525 -7.932 4.731 " fill="#115742"/>
<path transform="matrix(2.7777777,0,0,-2.7777777,1854.8285,1499.4574)" d="M 0 0 L 4.925 13.564 L 48.02 15.438 L 10.546 29.046 L 14.21 39.138 L 65.61 20.475 L 60.686 6.91 L 17.491 4.989 L 55.038 -8.644 L 51.399 -18.663 Z " fill="#115742"/>
<g opacity=".509995">
<clipPath id="cp1">
<path transform="matrix(2.7777777,0,0,-2.7777777,0,2400)" d="M 79.8061 85.4172 L 785.194 85.4172 L 785.194 790.805 L 79.8061 790.805 Z "/>
</clipPath>
<g clip-path="url(#cp1)">
<path transform="matrix(2.7777777,0,0,-2.7777777,2178.2742,1183.0242)" stroke-width="2.031" stroke-linecap="butt" stroke-miterlimit="10" stroke-linejoin="miter" fill="none" stroke="#115742" d="M 0 0 C 0 -194.227 -157.452 -351.679 -351.679 -351.679 C -545.905 -351.679 -703.357 -194.227 -703.357 0 C -703.357 194.227 -545.905 351.678 -351.679 351.678 C -157.452 351.678 0 194.227 0 0 Z "/>
</g>
</g>
<g opacity=".509995">
<clipPath id="cp2">
<path transform="matrix(2.7777777,0,0,-2.7777777,0,2400)" d="M 58.906 64.5171 L 806.094 64.5171 L 806.094 811.705 L 58.906 811.705 Z "/>
</clipPath>
<g clip-path="url(#cp2)">
<path transform="matrix(2.7777777,0,0,-2.7777777,2236.3282,1183.0242)" stroke-width="2.031" stroke-linecap="butt" stroke-miterlimit="10" stroke-linejoin="miter" fill="none" stroke="#115742" d="M 0 0 C 0 -205.77 -166.809 -372.578 -372.578 -372.578 C -578.348 -372.578 -745.157 -205.77 -745.157 0 C -745.157 205.769 -578.348 372.578 -372.578 372.578 C -166.809 372.578 0 205.769 0 0 Z "/>
</g>
</g>
<path transform="matrix(2.7777777,0,0,-2.7777777,1068.3622,1172.5505)" d="M 0 0 L .139 0 L 6.376 16.98 L 18.574 16.98 L 6.029 -13.168 L 6.029 -34.999 L -6.168 -34.999 L -6.168 -13.168 L -18.436 16.98 L -6.099 16.98 Z " fill="#ffffff"/>
<path transform="matrix(2.7777777,0,0,-2.7777777,1130.9191,1269.7699)" d="M 0 0 L 0 51.979 L 27.93 51.979 L 27.93 41.583 L 12.198 41.583 L 12.198 32.019 L 27.445 32.019 L 27.445 21.623 L 12.198 21.623 L 12.198 10.396 L 28.762 10.396 L 28.762 0 Z " fill="#ffffff"/>
<path transform="matrix(2.7777777,0,0,-2.7777777,1272.0242,1151.5653)" d="M 0 0 L -.139 0 L -3.673 -23.287 L 3.396 -23.287 Z M -18.712 -42.554 L -7.346 9.425 L 7.347 9.425 L 18.644 -42.554 L 6.307 -42.554 L 4.574 -32.436 L -4.989 -32.436 L -6.445 -42.554 Z " fill="#ffffff"/>
<path transform="matrix(2.7777777,0,0,-2.7777777,1367.3095,1186.7962)" d="M 0 0 L 4.158 0 C 7.693 0 8.524 3.257 8.524 6.445 C 8.524 12.614 5.96 12.891 0 12.752 Z M 0 -29.871 L -12.197 -29.871 L -12.197 22.108 L 5.614 22.108 C 15.594 22.108 20.584 18.089 20.584 7.762 C 20.584 2.218 19.267 -1.732 14.139 -4.089 L 14.139 -4.228 C 17.534 -4.99 19.96 -7.346 20.168 -10.951 C 20.515 -15.109 20.584 -24.049 21.277 -27.375 C 21.554 -28.069 21.9 -28.693 22.455 -29.177 L 22.455 -29.871 L 9.148 -29.871 C 8.802 -28.9 8.524 -27.93 8.455 -26.89 C 8.247 -22.316 8.524 -18.019 8.179 -14.832 C 7.832 -11.643 6.861 -9.564 4.02 -9.356 L 0 -9.356 Z " fill="#ffffff"/>
<path transform="matrix(2.7777777,0,0,-2.7777777,1466.8294,1221.4491)" d="M 0 0 L 0 -3.673 C 0 -6.653 .971 -9.287 4.852 -9.287 C 7.693 -9.287 8.94 -6.723 8.94 -4.089 C 8.94 .277 5.337 1.94 2.148 3.881 C -1.594 6.029 -4.781 8.04 -7.068 10.673 C -9.286 13.307 -10.604 16.495 -10.604 21.069 C -10.604 30.841 -4.712 35.831 4.713 35.831 C 15.316 35.831 20.723 28.762 20.168 18.99 L 8.94 18.99 C 8.802 22.039 8.94 26.198 4.921 26.475 C 2.426 26.683 .971 25.297 .693 23.01 C .347 19.891 1.941 18.297 4.366 16.633 C 8.94 13.723 12.892 11.921 15.732 9.287 C 18.574 6.653 20.237 3.188 20.237 -3.118 C 20.237 -13.099 14.693 -18.643 4.574 -18.643 C -6.584 -18.643 -11.297 -12.405 -11.297 -5.544 L -11.297 0 Z " fill="#ffffff"/>
</g>
</g>
</g>
</g>
</svg>
